<svg width="133" height="133" viewBox="0 0 133 133" fill="none" xmlns="http://www.w3.org/2000/svg">
<path fill-rule="evenodd" clip-rule="evenodd" d="M129.91 114.848C128.629 118.116 125.67 122.71 121.429 125.979C119 127.834 116.084 129.645 112.109 130.838C107.868 132.119 102.612 132.516 96.0744 132.516H36.442C29.9045 132.516 24.6922 132.075 20.4075 130.838C16.432 129.645 13.5167 127.878 11.0872 125.979C6.89085 122.754 3.88715 118.116 2.60616 114.848C0.0441721 108.266 0 100.801 0 96.0744V36.442C0 31.7156 0.0441721 24.2505 2.60616 17.6688C3.88715 14.4001 6.84668 9.80621 11.0872 6.53747C13.5167 4.68225 16.432 2.87119 20.4075 1.67854C24.6922 0.441721 29.9045 0 36.442 0H96.0744C102.612 0 107.824 0.441721 112.109 1.67854C116.084 2.87119 119 4.63807 121.429 6.53747C125.626 9.76204 128.629 14.4001 129.91 17.6688C132.516 24.2505 132.516 31.7598 132.516 36.442V96.0744C132.516 100.801 132.472 108.266 129.91 114.848Z" fill="url(#paint0_linear_101_25)"/>
<path d="M77.6104 79.9957C77.4337 78.4055 76.9037 77.2571 75.8435 76.1969C73.8558 74.1208 70.3662 72.7515 66.2582 72.7515C62.1502 72.7515 58.6606 74.0767 56.6728 76.1969C55.6569 77.3012 55.0826 78.4055 54.9059 79.9957C54.5526 83.0878 54.7734 85.7381 55.1268 90.0228C55.4802 94.0866 56.1428 99.5198 56.982 104.997C57.6004 108.928 58.0863 111.049 58.528 112.551C59.279 115.024 61.9735 117.145 66.2582 117.145C70.5429 117.145 73.2815 114.98 73.9883 112.551C74.43 111.049 74.9159 108.928 75.5343 104.997C76.3736 99.4756 77.0362 94.0866 77.3895 90.0228C77.7871 85.7381 77.9638 83.0878 77.6104 79.9957Z" fill="white"/>
<path d="M77.1245 57.4679C77.1245 63.4753 72.2655 68.3343 66.2581 68.3343C60.2507 68.3343 55.3918 63.4753 55.3918 57.4679C55.3918 51.4605 60.2507 46.6016 66.2581 46.6016C72.2655 46.6016 77.1245 51.5047 77.1245 57.4679Z" fill="white"/>
<path d="M66.1257 14.6652C40.7709 14.7535 20.01 35.3377 19.6566 60.6925C19.3916 81.2325 32.5107 98.813 50.8421 105.262C51.2838 105.439 51.7256 105.041 51.6814 104.6C51.4605 103.009 51.1955 101.419 51.0188 99.829C50.9305 99.2548 50.5771 98.813 50.0912 98.548C35.6027 92.2314 25.4873 77.6988 25.664 60.8692C25.8849 38.7831 43.9071 20.8051 65.949 20.6284C88.5209 20.4517 106.941 38.739 106.941 61.2667C106.941 77.9196 96.8695 92.2314 82.5135 98.548C81.9835 98.7689 81.6301 99.2548 81.5859 99.829C81.365 101.419 81.1442 103.009 80.9233 104.6C80.835 105.085 81.3209 105.439 81.7626 105.262C99.9173 98.9014 112.948 81.5859 112.948 61.2667C112.86 35.5586 91.878 14.621 66.1257 14.6652Z" fill="white"/>
<path d="M65.0656 30.1254C48.5452 30.7438 35.2935 44.393 35.0727 60.9134C34.9402 71.7797 40.3733 81.4092 48.7219 87.1074C49.1194 87.3725 49.6937 87.0633 49.6937 86.5774C49.5611 84.678 49.5611 82.9994 49.6495 81.2325C49.6937 80.6583 49.4728 80.1282 49.0311 79.7307C43.9513 74.9601 40.8592 68.1576 41.0359 60.6483C41.3893 47.3967 52.0348 36.6187 65.2864 36.0886C79.6865 35.5144 91.5247 47.0875 91.5247 61.3109C91.5247 68.5551 88.4326 75.0926 83.5295 79.7307C83.132 80.1282 82.9111 80.6583 82.9111 81.2325C82.9994 82.9552 82.9553 84.6338 82.8669 86.5332C82.8228 87.0191 83.397 87.3725 83.8387 87.0633C92.0547 81.4534 97.4879 71.9564 97.4879 61.2667C97.5321 43.6862 82.8228 29.4186 65.0656 30.1254Z" fill="white"/>
<defs>
<linearGradient id="paint0_linear_101_25" x1="66.2582" y1="0" x2="66.2582" y2="132.516" gradientUnits="userSpaceOnUse">
<stop stop-color="#F452FF"/>
<stop offset="1" stop-color="#832BC1"/>
</linearGradient>
</defs>
</svg>
