<svg width="12" height="16" viewBox="0 0 12 16" fill="none" xmlns="http://www.w3.org/2000/svg">
<path d="M6.22685 13.3335L6.22685 14.5406L7.0804 13.6871L10.4908 10.2767L10.1372 9.92312L10.4908 10.2767C10.5793 10.1881 10.7229 10.1881 10.8114 10.2767C10.8999 10.3652 10.8999 10.5088 10.8114 10.5973L6.16045 15.2483C6.07189 15.3368 5.92838 15.3368 5.83981 15.2483L5.48626 15.6018L5.83981 15.2483L1.18898 10.5976C1.14448 10.553 1.12244 10.4957 1.12244 10.4371C1.12244 10.3784 1.14449 10.3212 1.18884 10.2768C1.2774 10.1882 1.42092 10.1882 1.50948 10.2768L1.50949 10.2768L4.91987 13.6871L5.77342 14.5406L5.77342 13.3335L5.77342 0.912261C5.77342 0.787109 5.87499 0.685547 6.00013 0.685547C6.12531 0.685547 6.22685 0.787083 6.22685 0.912261L6.22685 13.3335Z" stroke="#78B27B"/>
</svg>
