<svg width="133" height="133" viewBox="0 0 133 133" fill="none" xmlns="http://www.w3.org/2000/svg">
<path d="M105.452 58.7392C84.0941 46.0552 48.865 44.8892 28.4762 51.0772C25.2012 52.0705 21.7393 50.2227 20.7477 46.9483C19.7556 43.6721 21.6016 40.212 24.8778 39.2168C48.2834 32.1126 87.1899 33.4845 111.778 48.0799C114.723 49.8286 115.688 53.6318 113.943 56.5715C112.196 59.5165 108.389 60.4879 105.451 58.7392M104.752 77.5251C103.254 79.9569 100.074 80.7194 97.6462 79.2264C79.8412 68.2817 52.6888 65.1105 31.623 71.5051C28.8916 72.3299 26.0059 70.7906 25.1763 68.0633C24.7808 66.7523 24.9214 65.3379 25.5671 64.1303C26.2128 62.9227 27.3111 62.0205 28.621 61.6213C52.6853 54.3183 82.6017 57.855 103.053 70.4233C105.481 71.9187 106.245 75.0993 104.752 77.5251ZM96.6446 95.567C96.3624 96.0305 95.9916 96.4338 95.5533 96.7538C95.115 97.0739 94.618 97.3043 94.0905 97.432C93.5631 97.5596 93.0156 97.582 92.4795 97.4978C91.9434 97.4136 91.4292 97.2245 90.9663 96.9413C75.4073 87.432 55.8232 85.2845 32.7594 90.5527C32.2309 90.6736 31.6838 90.6891 31.1494 90.5985C30.6149 90.5078 30.1035 90.3128 29.6444 90.0245C29.1853 89.7362 28.7875 89.3602 28.4738 88.9182C28.16 88.4761 27.9364 87.9765 27.8158 87.448C27.6943 86.9194 27.6782 86.3719 27.7686 85.8371C27.859 85.3022 28.054 84.7905 28.3424 84.3311C28.6309 83.8717 29.0071 83.4737 29.4496 83.16C29.8921 82.8462 30.3921 82.6228 30.921 82.5026C56.1603 76.7335 77.81 79.2163 95.2744 89.8881C95.7374 90.1709 96.1401 90.5421 96.4595 90.9806C96.779 91.4191 97.0089 91.9162 97.1362 92.4436C97.2635 92.9709 97.2857 93.5182 97.2014 94.0541C97.1172 94.59 96.9281 95.1041 96.6452 95.567M66.257 0C29.6654 0 0 29.6642 0 66.257C0 102.853 29.6654 132.516 66.2576 132.516C102.852 132.516 132.516 102.853 132.516 66.257C132.516 29.6648 102.852 0 66.2576 0" fill="#1ED760"/>
</svg>
