<svg width="12" height="16" viewBox="0 0 12 16" fill="none" xmlns="http://www.w3.org/2000/svg">
<path d="M5.77315 2.6665L5.77315 1.45939L4.9196 2.31294L1.50921 5.72333L1.86277 6.07688L1.50921 5.72333C1.42065 5.81189 1.27714 5.81189 1.18857 5.72333C1.10007 5.63482 1.10007 5.49119 1.18857 5.40269L5.83955 0.751715C5.92811 0.663151 6.07162 0.663151 6.16019 0.751714L6.51374 0.398161L6.16019 0.751719L10.811 5.40243C10.8555 5.44697 10.8776 5.50425 10.8776 5.56289C10.8776 5.62157 10.8555 5.67881 10.8112 5.72321C10.7226 5.81178 10.5791 5.81178 10.4905 5.72321L10.4905 5.72321L7.08013 2.31294L6.22658 1.45942L6.22658 2.6665L6.22658 15.0877C6.22658 15.2129 6.12501 15.3145 5.99987 15.3145C5.87469 15.3145 5.77315 15.2129 5.77315 15.0877L5.77315 2.6665Z" stroke="#78B27B"/>
</svg>
