<svg width="250" height="459" viewBox="0 0 250 459" fill="none" xmlns="http://www.w3.org/2000/svg">
<path d="M49.7352 456.849C48.5781 447.639 47.2982 428.177 46.6728 410.346C46.5033 405.408 46.2754 400.358 46.1702 399.125C46.065 397.892 45.8488 392.725 45.6851 387.653C44.6916 356.742 44.3643 353.025 41.9798 345.761C39.8467 339.273 34.3004 327.129 31.501 322.822C30.7003 321.588 29.3211 319.344 28.4444 317.831C27.5619 316.323 26.1359 314.19 25.2768 313.097C21.0864 306.633 16.6564 298.766 13.5297 292.525C13.5297 292.379 12.7466 290.619 11.7881 288.627C6.48149 276.64 2.31449 262.777 0.859259 250.709C-0.00569946 243.035 -0.198561 223.486 0.531977 217.168C1.22161 211.236 2.91646 210.909 3.30218 216.636C3.7931 224.59 6.00225 233.199 8.03023 239.914C10.029 246.623 14.1317 258.341 15.4174 261.012C16.0077 262.228 16.8376 264.227 17.2701 265.454C17.6967 266.675 18.6552 268.697 19.3857 269.942C20.1221 271.181 21.7585 274.22 23.0267 276.687C24.295 279.159 26.1476 282.747 27.1411 284.67C30.7295 291.595 34.8381 301.028 36.8076 306.861C37.5031 308.918 38.6077 311.975 39.2564 313.652C40.4603 316.749 43.4526 329.303 43.4526 331.237C43.4526 331.822 43.6805 332.295 43.9552 332.295C44.4052 332.295 44.7325 322.67 44.6624 311.349C44.4111 269.884 44.4403 256.939 44.8552 233.801C45.1241 218.711 45.2643 205.363 45.1708 204.124C45.0715 202.89 44.8728 196.608 44.715 190.162C44.563 183.715 44.3117 176.761 44.1598 174.703C44.002 172.646 43.7273 167.603 43.5403 163.5L43.2071 156.042L40.9629 155.359C39.7239 154.979 38.0408 154.687 37.2226 154.698C32.3484 154.774 26.697 151.057 27.1294 148.047C27.2463 147.212 27.5035 146.154 27.7022 145.704C28.2282 144.494 25.3586 141.49 22.0507 139.789C16.5512 136.967 14.2895 135.178 14.1317 133.53C13.9271 131.455 15.435 129.679 18.8013 128.031C21.3786 126.774 21.852 126.704 26.206 126.985L30.8523 127.277L31.1094 124.08C31.3841 120.655 33.1842 116.81 34.9608 115.863C36.9771 114.782 38.5609 115.273 40.8753 117.692L43.1195 120.03L42.7747 118.323C42.5876 117.388 42.1961 114.489 41.9097 111.883C41.6175 109.282 41.2727 106.979 41.1383 106.763C41.0097 106.553 39.6304 106.377 38.0758 106.377C33.7803 106.377 28.8068 104.314 26.96 101.755C26.1534 100.65 25.4989 99.3351 25.4989 98.8325C25.4989 98.3357 24.8735 97.5993 24.1021 97.2019C23.3365 96.8045 21.7644 95.4603 20.613 94.2096C18.889 92.3394 18.5208 91.5914 18.5208 89.9608C18.5208 87.6991 19.8124 86.4308 22.1092 86.4308C23.3774 86.4308 23.4417 86.3315 22.9917 85.1509C22.2728 83.2457 22.4072 77.1676 23.2196 75.2273C24.1079 73.1 26.4398 71.7792 28.158 72.4337C29.7711 73.0474 32.927 75.8468 34.0082 77.6176L34.8673 79.032L36.1005 76.3377C36.9771 74.4208 37.7602 73.4623 38.8005 73.0357L40.2616 72.4279L39.7999 68.5823C39.5486 66.4667 39.2856 64.6725 39.2155 64.5907C39.1453 64.5147 38.1109 64.7894 36.907 65.2102C35.7089 65.6251 33.8562 65.9699 32.7926 65.9758C29.4321 65.9874 25.4989 62.6796 25.4989 59.8451C25.4989 58.758 25.1248 58.4775 22.6352 57.7177C18.5441 56.4671 16.6331 55.3917 13.67 52.6683C10.1868 49.4714 9.87119 48.0279 12.1914 45.8421C15.2596 42.9433 19.6896 42.7388 25.4989 45.2226C26.0424 45.4505 26.4983 44.9304 27.1704 43.294C28.9061 39.0627 32.7692 37.7068 35.5336 40.3543C36.3167 41.1082 37.1174 41.5641 37.3044 41.377C37.4973 41.19 37.6667 38.2971 37.6843 34.9541L37.7193 28.8761L35.9719 28.4494C35.0134 28.2157 32.7692 27.9585 30.9867 27.8767C26.995 27.6955 24.1664 26.9357 22.004 25.463C18.0708 22.7804 18.8656 21.0973 24.067 21.0973C27.5093 21.0973 28.1347 20.7525 26.7496 19.6011C25.0255 18.1751 26.206 11.3782 28.6256 8.75409C29.9932 7.27548 30.4023 7.33392 32.553 9.30345L34.3647 10.9691L34.9784 8.92942C35.8667 5.94882 37.6843 2.56496 39.1161 1.23246C41.635 -1.11696 43.3533 0.3675 45.2176 6.49234C45.9832 9.00539 46.0592 9.08137 47.5261 8.78916C49.5132 8.39174 49.9223 9.0989 49.9281 12.962C49.9339 15.7731 50.0333 16.0536 51.0619 16.1997C51.921 16.3225 52.2191 16.7374 52.3418 18.0056C52.6632 21.3953 48.3677 27.1754 44.2241 27.6254C42.839 27.7773 41.6526 28.689 40.8344 29.443C40.472 29.7761 40.209 30.2144 40.209 33.1307C40.209 35.2931 40.2207 37.0581 40.2382 37.0581C40.2616 37.0581 41.1558 36.6373 42.237 36.123C46.0183 34.3171 46.3514 34.323 48.1281 36.2048L49.7528 37.9289L52.4645 36.497C55.7432 34.7613 57.9056 34.6678 59.653 36.1814C61.0089 37.362 61.4063 39.6004 60.6933 42.0433C60.4946 42.7271 60.2375 43.6271 60.1264 44.0362C59.9745 44.6148 60.407 44.796 61.9791 44.8135C64.1415 44.8427 65.9123 46.2687 65.8831 47.9577C65.8597 49.3253 63.6915 53.13 62.3706 54.1176C61.2719 54.9358 57.0465 56.3969 54.9133 56.695C54.4925 56.7534 53.2594 57.7587 52.1665 58.9217C50.7112 60.4821 49.069 61.4873 45.9481 62.7439C43.6162 63.6848 41.7168 64.7368 41.7227 65.0933C41.7344 65.4439 41.9214 67.1972 42.1435 68.9914C42.5 71.8727 42.7221 72.3461 44.002 73.0883C45.7903 74.111 46.3514 75.5137 46.7663 79.9787C46.9417 81.8781 47.2456 83.4386 47.4326 83.4386C47.6196 83.4386 48.5956 82.258 49.595 80.8203C53.8263 74.713 58.8582 74.3331 61.1024 79.9554C61.7745 81.6327 61.8154 82.3749 61.342 84.3269C60.5063 87.7926 58.6829 91.2173 55.9887 94.3616C53.8204 96.898 53.6626 97.2604 54.212 98.3299C54.9776 99.8143 54.4574 101.755 52.6691 104.104C51.1963 106.033 49.0398 106.868 45.5215 106.874C43.5227 106.874 43.3649 106.968 43.6046 107.996C43.7448 108.616 44.2357 112.374 44.6858 116.354C45.1416 120.328 45.6384 124.594 45.7845 125.827L46.0592 128.072L46.8482 126.827C47.2865 126.137 49.1157 124.086 50.91 122.256C53.4113 119.714 54.6269 118.849 56.0822 118.575C60.0212 117.844 62.0258 120.293 62.207 126.079C62.359 130.848 61.0265 134.839 57.3387 140.689L56.2984 142.338L57.3562 143.465C57.9407 144.085 58.4082 145.026 58.4024 145.558C58.3848 146.884 50.0567 156.083 47.6547 157.428L45.7085 158.52L45.8371 162.495C45.9072 164.686 46.2345 170.852 46.5618 176.199C47.2222 187.064 47.4267 250.042 46.8072 253.251C46.5676 254.496 46.5968 254.963 46.8774 254.496C47.1287 254.087 47.491 252.737 47.6897 251.503C48.1281 248.733 50.0099 242.112 51.623 237.647C53.4347 232.644 58.1744 221.417 59.0628 220.044C59.4894 219.383 60.9914 215.695 62.4057 211.856C65.7428 202.762 67.9637 198.694 74.1119 190.413C78.0392 184.867 81.6101 178.642 84.7836 173.336C85.5726 172.032 86.6129 169.899 87.0921 168.602C88.1031 165.884 89.1084 164.803 89.8974 165.586C90.2597 165.949 89.95 167.462 88.8921 170.531C86.8232 177.45 83.6615 182.78 80.8679 188.887C78.9919 192.903 75.3275 204.93 74.8716 206.981C74.4859 208.723 70.7105 221.16 67.7123 228.313C61.5875 242.924 61.231 243.619 56.1698 250.779C53.8146 254.11 51.4301 258.791 48.9346 264.969C48.3268 266.477 47.5495 268.394 47.1988 269.223C45.9949 272.099 46.9884 387.863 48.2274 389.102C48.3443 389.219 48.2274 389.102 48.4436 387.67C48.695 385.987 50.0684 378.08 52.2015 369.448C53.0957 366.601 53.2769 363.253 54.1243 360.617C54.51 359.442 55.527 355.9 56.3919 352.745C57.9056 347.239 59.7875 341.599 62.9726 333.043C63.7908 330.852 65.2168 326.591 66.1344 323.57C67.0578 320.554 68.5948 315.785 69.5533 312.98C70.5059 310.175 71.4469 306.919 71.6339 305.75C71.8267 304.576 72.3878 302.051 72.8904 300.128C73.3872 298.211 73.9365 295.517 74.1119 294.144C74.2814 292.77 74.8483 289.293 75.3625 286.412C78.0217 271.637 78.0743 271.199 78.612 259.504C78.875 253.765 79.2023 252.643 80.4822 253.134C81.3705 253.473 81.3354 273.946 80.412 291.899C80.0672 298.62 80.0672 307.065 79.6231 310.601C79.0445 315.201 78.5769 321.419 75.871 327.807C74.9008 330.098 73.5216 334.405 72.5631 337.28C70.7748 342.634 67.4961 350.337 64.9071 355.234C62.809 359.208 60.6232 363.738 57.929 369.699C54.6445 376.981 54.0717 378.465 53.1483 382.165C52.7042 383.953 51.7983 387.016 51.1379 388.985C48.6073 396.536 48.3443 416.675 50.4833 439.93C52.2366 459.064 52.2366 458.971 51.0385 458.971C50.1911 458.971 49.9515 458.579 49.7352 456.849ZM68.2033 342.681C68.8578 341.126 71.0611 334.943 73.1826 328.964C76.2801 320.238 76.8704 316.545 77.186 312.349C78.7406 291.636 78.5594 284.068 78.6412 283.273C78.6997 282.771 78.7406 282.426 78.4659 282.426C78.1912 282.426 77.8113 283.828 77.6243 285.541C77.4373 287.253 77.0983 289.445 76.8704 290.403C76.6425 291.362 76.3152 293.553 76.1457 295.272C75.9762 296.99 75.6372 298.936 75.3859 299.59C75.1346 300.251 74.5736 302.548 74.1352 304.698C73.2937 308.801 71.0436 316.253 69.6585 319.49C69.2085 320.536 68.6474 322.337 68.4078 323.482C68.1682 324.628 67.0403 328.146 65.9006 331.296C64.761 334.452 63.4109 338.315 62.8966 339.887C61.6869 343.066 60.407 346.526 59.618 349.349C58.9167 351.903 57.8881 355.561 57.3387 357.478C56.7893 359.401 56.0237 362.656 55.638 364.714C55.2523 366.771 54.5919 369.448 54.1828 370.663C53.7678 371.873 53.4405 372.995 53.4522 373.153C58.3264 363.358 64.2467 352.008 68.2033 342.681ZM41.2727 332.26C40.1447 325.048 38.5025 317.901 37.1992 314.593C36.5563 312.945 35.4693 309.917 34.7855 307.86C33.6634 304.465 32.401 301.355 28.9295 293.448C28.2749 291.964 26.6502 288.597 25.3177 285.967C23.9794 283.332 22.0157 279.428 20.9462 277.289C19.8766 275.15 18.4799 272.572 17.8487 271.555C17.2175 270.538 16.1655 268.358 15.511 266.716C14.8564 265.068 14.1668 263.496 13.9739 263.221C8.9361 252.246 6.02563 240.364 3.09179 229.558C2.70022 227.91 2.51904 228.354 2.39047 229.809C2.25021 231.434 2.25605 241.293 2.78788 247.512C3.45998 255.296 5.56977 266.792 6.91397 269.954C7.31722 270.918 8.1705 273.303 8.80168 275.255C9.43871 277.213 10.4264 279.726 10.9933 280.848C15.8265 291.362 20.2039 302.46 27.0535 311.91C28.3918 313.728 29.4905 315.376 29.4905 315.569C29.4905 315.768 30.4256 317.31 31.5653 318.999C34.9433 324.002 35.2121 324.44 36.5855 327.31C38.8122 331.956 40.8285 336.474 41.261 337.783C42.0441 340.156 42.05 337.251 41.2727 332.26ZM53.8204 250.335C57.5374 245.928 59.8225 240.832 61.8973 236.367C63.8785 232.118 67.7649 222.522 69.7988 216.841C70.389 215.199 71.5345 211.271 72.341 208.115C74.4976 199.694 75.1814 197.356 76.8529 192.657C77.9107 189.694 80.2776 184.82 79.664 185.632C79.1847 186.269 75.7191 191.897 74.6262 193.317C71.8267 196.935 70.2605 199.425 68.215 203.481C66.6311 206.625 65.7019 208.98 63.0661 216.578C62.6395 217.799 61.6343 219.968 60.8336 221.394C60.0271 222.82 59.1738 224.62 58.9342 225.403C58.6946 226.18 57.6718 228.728 56.6608 231.054C53.0197 239.458 51.3892 244.701 49.1976 254.993C48.7592 257.05 48.2917 259.183 48.1573 259.732C48.0287 260.282 48.8352 258.967 49.9573 256.816C51.0736 254.665 52.8152 251.749 53.8204 250.335ZM47.6254 154.961C48.5781 154.593 55.9244 146.06 55.9244 145.318C55.9244 144.564 54.1302 144.646 52.5288 145.482C50.0158 146.785 47.7073 150.14 46.9183 153.629C46.5209 155.394 46.515 155.388 47.6254 154.961ZM42.1844 151.712C40.6766 148.801 38.2629 147.586 32.7341 146.943C30.1451 146.639 28.6197 147.638 29.4087 149.111C30.3146 150.806 32.3133 151.759 35.592 152.074C37.3102 152.238 39.6129 152.659 40.7116 153.015C41.8104 153.372 42.7805 153.594 42.8682 153.506C42.9558 153.418 42.6461 152.612 42.1844 151.712ZM50.4892 144.401C53.5048 142.244 54.4574 141.215 56.3919 138.019C58.6946 134.22 59.9102 130.246 59.9102 126.523C59.9102 122.163 59.2323 120.842 56.988 120.842C55.4685 120.842 54.7789 121.292 52.1899 123.957C50.5242 125.67 48.4612 128.317 47.6138 129.831C46.0942 132.537 46.0592 132.747 45.7085 141.549L45.3579 150.514L46.8248 148.24C47.6371 146.99 49.2852 145.266 50.4892 144.401ZM43.5344 135.804C43.6046 128.79 43.5578 128.44 42.0032 124.337C40.4019 120.117 39.4843 118.662 37.883 117.803C36.6264 117.131 35.7556 117.675 34.4874 119.93C33.4355 121.806 33.3653 122.362 33.6517 127.014C33.9322 131.713 34.2829 133.431 36.1531 139.293C36.5505 140.526 37.1174 142.46 37.4213 143.588C37.883 145.318 38.3447 145.832 40.3376 146.867L42.7045 148.088L43.0903 145.564C43.2948 144.173 43.4994 139.778 43.5344 135.804ZM34.7154 142.659C34.5225 141.221 34.0783 139.48 33.7394 138.796C33.3945 138.106 32.8276 136.312 32.4828 134.804C32.1322 133.296 31.5361 131.444 31.1562 130.69C30.4724 129.34 30.3906 129.316 25.7151 129.316C21.9514 129.316 20.5663 129.527 19.0117 130.316C17.387 131.152 16.0252 132.572 16.0252 133.442C16.0252 133.764 20.5721 136.587 23.3073 137.96C24.7099 138.661 26.9249 140.426 28.234 141.882C30.0224 143.869 30.8932 144.482 31.7757 144.366C32.4244 144.284 33.3478 144.447 33.8387 144.728C34.3296 145.014 34.803 145.254 34.8965 145.266C34.99 145.271 34.9082 144.103 34.7154 142.659ZM50.6703 103.011C52.0145 101.562 52.7158 100.013 52.2366 99.5338C51.5937 98.8909 45.0773 101.451 43.6981 102.894L42.2721 104.385H45.8312C49.0807 104.385 49.5132 104.262 50.6703 103.011ZM38.1693 102.789C35.2004 99.3585 32.0679 97.4006 29.5373 97.4006C27.5502 97.4006 27.2346 98.1019 28.3567 100.031C29.4905 101.983 33.6575 103.847 36.9245 103.87L39.122 103.882L38.1693 102.789ZM42.2837 100.971C42.95 100.124 43.6455 98.0084 44.1305 95.3902C45.1533 89.8147 45.2293 88.1841 44.75 81.7671C44.4345 77.4774 44.1539 76.1565 43.4 75.4085C40.6064 72.6091 36.983 76.6942 36.9713 82.6613C36.9713 83.7425 37.1875 85.8698 37.4505 87.3952C37.7193 88.9205 38.1927 92.4154 38.5083 95.1564C39.0285 99.7091 39.911 102.433 40.846 102.362C41.0448 102.345 41.6935 101.72 42.2837 100.971ZM51.2139 96.1266C57.6835 90.9193 61.2369 81.7028 57.929 78.7105C54.5977 75.6948 48.4261 84.0055 46.7079 93.8298C46.2929 96.2025 45.9481 98.3065 45.9481 98.4994C45.9481 99.1948 49.2443 97.7104 51.2139 96.1266ZM36.2407 95.7818C36.0888 94.8876 35.7498 92.1992 35.4927 89.803C34.5751 81.2879 29.999 73.5967 26.5099 74.7072C24.8443 75.2331 23.8508 81.1593 24.9437 84.0288C25.1833 84.6659 26.9833 86.7581 28.9353 88.6751C30.8932 90.592 32.9796 93.1752 33.5757 94.4083C35.1887 97.7571 36.7141 98.5403 36.2407 95.7818ZM31.4835 94.8233C31.4835 94.0927 27.8658 90.3758 26.434 89.6394C25.6742 89.2478 24.032 88.9205 22.7813 88.9205C20.9871 88.9205 20.5137 89.0959 20.5137 89.7621C20.5137 90.9485 22.454 93.6486 23.9618 94.5603C25.2943 95.3727 31.4835 95.5889 31.4835 94.8233ZM36.0303 63.1763C39.1161 62.1653 39.0986 61.201 35.9719 59.5879C34.1368 58.6411 33.1958 58.4717 30.823 58.6704C29.2217 58.8048 27.8015 59.0269 27.6613 59.1671C26.6385 60.1899 30.5542 63.9887 32.6289 63.9887C33.1315 63.9887 34.6628 63.6205 36.0303 63.1763ZM46.6144 60.073C49.6417 58.6996 51.9327 56.6015 51.9327 55.193C51.9327 54.819 51.6522 54.5151 51.3074 54.5151C49.2969 54.5443 47.6313 56.7768 46.4916 57.7411C45.7845 58.3372 42.5526 61.4932 43.1896 61.4932C43.3474 61.4932 44.8845 60.8561 46.6144 60.073ZM46.5559 49.9097C48.1281 43.6329 48.1807 39.7523 46.7137 37.7477C46.065 36.8594 45.9715 36.8652 43.663 37.8179C41.6818 38.6419 41.0681 39.2322 40.0278 41.3011C38.8882 43.5628 38.7655 44.4395 38.6486 51.0143C38.5259 57.8463 38.5784 58.308 39.6012 59.3951L40.6882 60.5522L42.874 58.2087C44.8728 56.058 45.1884 55.3508 46.5559 49.9097ZM28.3567 56.6015C28.8184 56.3093 28.6607 55.6313 27.7314 53.8897C27.0535 52.6098 26.4983 51.3299 26.4983 51.0377C26.4983 50.7455 25.9956 49.7286 25.3761 48.7701C23.319 45.5908 18.5032 44.7258 14.4765 46.8064C12.431 47.8642 12.6765 49.074 15.3999 51.3474C18.4682 53.9131 18.5909 53.9832 23.0034 55.5612C27.2639 57.0866 27.5152 57.1333 28.3567 56.6015ZM36.4453 51.6455C36.4102 45.6083 35.8199 43.3232 33.9147 41.9147C32.1614 40.6173 30.7178 41.1316 29.5256 43.4752C27.7665 46.9175 27.7606 48.4954 29.4789 52.3351C30.9458 55.6255 31.162 55.8592 33.1315 56.3443C34.2829 56.6249 35.5043 56.8878 35.8492 56.9288C36.3167 56.9872 36.4628 55.6547 36.4453 51.6455ZM58.3614 53.4514C61.6693 52.3351 63.3992 50.5176 63.3992 48.1506C63.3992 47.1746 63.1421 47.0285 61.418 47.0285C59.6706 47.0285 59.1095 47.3616 56.6783 49.8279C54.0659 52.4871 53.1542 54.5092 54.5802 54.5092C54.9367 54.5092 56.6374 54.0358 58.3614 53.4514ZM54.7906 48.2032C57.4731 44.6908 59.1095 40.9329 58.8231 38.94C58.7004 38.0458 58.2913 37.7711 56.9179 37.6367C54.7964 37.4321 51.6288 39.2205 50.9333 40.6348C50.4833 41.5524 50.0917 42.8732 49.9281 44.194C49.7937 45.3336 49.4781 47.7064 48.9346 49.4422C48.3911 51.1838 47.941 52.7968 47.941 53.0364C47.941 53.2702 48.8937 53.0481 50.0625 52.5397C51.5645 51.8851 52.9379 50.6286 54.7906 48.2032ZM36.457 25.7084C36.4453 25.5039 35.931 24.9662 35.2998 24.5104C33.9614 23.5402 24.3359 22.6577 23.8391 23.4584C23.2839 24.3467 26.206 25.2467 30.1919 25.4104C30.864 25.3227 36.3868 26.3455 36.457 25.7084ZM45.4514 24.7734C47.193 24.0194 49.5015 21.2551 50.1853 19.0985C50.5008 18.1167 50.419 18.0115 49.6184 18.3446C49.1099 18.555 48.1923 18.8414 47.5787 18.9758C46.3514 19.2388 40.8051 25.2643 41.3136 25.7727C41.6876 26.1468 43.0026 25.8312 45.4514 24.7734ZM42.2136 20.3492C42.5935 19.7998 43.2422 18.0582 43.6513 16.4803C44.3 13.9789 44.3117 13.1315 43.7098 9.99308C43.3299 8.01186 42.5877 5.41699 42.0558 4.23643L41.0973 2.09157L39.7882 3.64616C38.0291 5.73258 36.1122 11.9801 36.8894 13.073C38.7538 15.6854 39.1337 16.9829 39.0928 20.6005L39.0518 24.3409L40.2908 22.8447C40.9688 22.0207 41.8396 20.8986 42.2136 20.3492ZM36.8894 19.455C36.6907 16.3342 36.6732 16.2991 33.4705 13.2308C29.7302 9.63658 29.4029 9.7184 28.4269 14.4874C27.6554 17.6024 27.4859 17.316 29.7009 19.3498C30.7529 20.3141 32.0854 21.1031 32.6698 21.1031C33.2543 21.109 34.2887 21.4246 34.9784 21.8044C36.9713 22.9149 37.0998 22.7571 36.8894 19.455ZM47.5319 14.8205C47.906 12.6815 47.5787 10.7762 46.9475 11.4483C46.7254 11.6821 46.3865 13.0789 46.1936 14.5516C45.9072 16.6965 45.9715 17.1816 46.515 17.0004C46.8891 16.8777 47.3449 15.8958 47.5319 14.8205ZM141.97 456.598C141.807 455.3 141.456 452.729 141.193 450.894C140.924 449.059 140.702 446.785 140.702 445.844C140.702 444.903 140.34 442.589 139.895 440.701C139.13 437.446 138.931 437.142 135.974 434.699C134.256 433.285 131.871 431.625 130.673 431.012C126.413 427.978 120.925 424.793 117.19 421.725C112.112 417.499 107.208 412.549 104.157 408.452C101.539 404.94 97.7463 396.892 98.1729 395.776C98.7573 394.251 105.356 398.763 108.126 401.369C111.591 404.624 113.707 408.032 116.641 411.234C123.245 418.44 133.367 429.93 137.09 432.233L139.206 433.548V429.924C139.2 427.932 138.99 423.835 138.738 420.819C138.481 417.803 138.119 413.537 137.938 411.34C137.751 409.148 137.447 401.965 137.266 395.385L136.932 383.415L134.706 379.722C131.994 375.233 128.441 371.452 124.653 369.033C121.737 366.555 118.394 365.269 115.671 362.849C114.49 361.786 112.936 360.477 112.223 359.945C106.711 355.842 105.151 354.463 103.772 352.452C101.715 349.46 99.8093 344.551 99.8093 342.236C99.8093 340.401 100.779 339.022 101.826 339.367C102.965 339.747 118.353 354.656 123.894 360.74C125.758 362.785 127.996 365.21 128.867 366.122C132.421 369.383 133.759 374.141 135.921 377.565C137.903 380.674 137.879 380.715 138.668 372.691C138.949 369.81 139.434 364.877 139.743 361.721C140.053 358.565 140.632 354.188 141.035 351.996C141.947 347 143.455 336.497 144.454 328.175C144.875 324.674 145.769 319.736 146.447 317.199C147.119 314.669 147.89 310.467 148.159 307.866L148.65 303.132L147.294 302.045C146.435 301.355 144.869 300.829 143.01 300.613C141.397 300.42 138.89 299.725 137.441 299.059C135.991 298.392 133.274 297.557 131.398 297.2C127.009 296.359 125.331 295.459 122.807 292.595C120.457 289.924 120.13 287.838 121.743 285.786L122.737 284.53L120.375 284.202C117.348 283.782 112.112 281.263 110.797 279.591C110.241 278.884 109.54 277.376 109.248 276.248C108.336 272.765 104.911 266.091 102.55 263.198C100.727 260.954 100.306 260.071 100.306 258.452C100.306 256.699 100.522 256.331 102.054 255.425C103.012 254.864 103.801 254.332 103.801 254.25C100.049 250.492 97.3898 248.248 95.3209 244.023C92.6617 238.517 90.9786 235.537 89.8155 234.286C88.4012 232.772 86.344 226.84 86.344 224.298C86.344 221.44 88.033 218.092 91.0487 214.988C92.9539 213.025 93.4449 212.107 93.9942 209.5C94.83 205.515 95.4845 204.328 97.3664 203.352C98.9619 202.528 101.422 202.739 102.755 203.808C103.193 204.165 105.759 204.375 109.569 204.375H115.677L115.986 202.458C116.366 200.103 117.956 196.906 119.528 195.334C120.814 194.048 123.198 193.779 125.513 194.656C126.722 195.118 127.102 194.919 129.796 192.429C131.877 190.501 133.502 189.472 135.319 188.934C138.75 187.911 139.662 187.964 142.251 189.308C143.455 189.939 144.781 190.43 145.19 190.401C146.739 190.296 151.596 193.16 153.104 195.065C155.091 197.572 157.528 203.007 158.451 206.981C158.849 208.694 159.415 210.71 159.708 211.47C160 212.23 160.45 214.199 160.713 215.847C161.531 221.008 161.584 221.049 163.331 217.788C164.196 216.169 165.634 213.837 166.522 212.604C167.41 211.371 169.871 207.776 171.987 204.626C174.102 201.47 177.106 197.648 178.661 196.134C181.7 193.166 186.048 190.658 188.164 190.658C188.888 190.658 191.413 191.471 193.774 192.458C197.789 194.142 198.385 194.597 202.809 199.32C206.947 203.738 207.678 204.784 208.572 207.619C210.185 212.732 211.067 218.512 210.717 221.674L210.401 224.514L214.077 223.088C216.099 222.305 219.372 221.505 221.348 221.312C224.656 220.984 225.111 221.06 227.157 222.259C228.799 223.223 230.015 223.544 231.832 223.503C233.188 223.474 234.749 223.696 235.304 223.994C236.946 224.871 237.636 227.215 237.215 230.446C236.701 234.356 236.812 235.584 237.905 238.108C239.377 241.504 239.558 244.829 238.524 249.563C236.806 257.4 232.785 263.455 226.941 267.003C225.848 267.669 223.019 269.481 220.664 271.029C218.309 272.578 215.123 274.232 213.581 274.694C212.038 275.161 209.589 275.968 208.134 276.488C206.684 277.008 204.872 277.435 204.107 277.435C202.611 277.435 196.059 279.352 196.059 279.784C196.059 280.287 205.621 279.393 213.265 278.177C217.531 277.499 226.146 276.4 232.762 275.687C239.781 274.933 244.789 278.755 245.029 285.056C245.122 287.604 243.872 289.176 240.318 290.964C238.618 291.823 235.538 293.816 233.475 295.383C231.412 296.955 229.161 298.41 228.478 298.626C227.794 298.837 225.456 299.9 223.294 300.987C219.068 303.097 218.928 303.144 214.013 303.857C206.164 304.991 203.458 304.996 199.373 303.898C197.222 303.313 194.639 302.425 193.64 301.911C191.781 300.964 186.878 299.38 185.808 299.38C185.376 299.38 185.434 299.994 186.013 301.601C186.779 303.728 186.767 303.886 185.797 305.219C182.547 309.672 174.126 310.087 168.79 306.066C167.919 305.406 166.996 304.868 166.738 304.868C166.487 304.868 165.447 304.307 164.436 303.617L162.595 302.367L160.748 303.804C158.334 305.692 157.066 305.937 154.255 305.084C152.975 304.698 151.678 304.377 151.368 304.371C151.052 304.371 150.696 305.692 150.526 307.486C150.374 309.199 150.123 311.162 149.971 311.846C149.819 312.536 149.579 313.658 149.433 314.342C148.861 317.012 148.703 317.667 148.007 320.174C147.616 321.6 147.142 324.183 146.955 325.913C146.09 334.072 144.361 346.216 142.175 359.477C141.9 361.119 141.468 365.561 141.205 369.348C140.386 379.979 138.721 391.317 139.603 401.866L139.989 405.355L141.14 401.866C142.654 397.261 147.844 387.448 150.713 382.778C152.402 380.032 154.214 377.694 155.64 375.309C161.847 364.848 168.217 357.554 177.019 350.822C178.579 349.629 181.314 347.473 183.097 346.029C186.907 342.938 187.977 342.342 191.185 341.494C193.231 340.957 193.692 340.968 194.324 341.599C195.364 342.64 195.294 342.868 193.207 345.322C189.946 349.162 186.825 351.967 183.038 354.457C181.01 355.789 178.795 357.297 178.106 357.806C177.422 358.32 174.394 360.406 171.373 362.44C165.692 366.274 161.473 370.201 159.848 373.153C159.328 374.094 157.148 377.349 154.997 380.382C151.146 385.817 148.405 390.534 148.837 390.966C148.96 391.089 149.463 390.423 150.24 389.786C154.196 386.571 157.423 383.801 163.974 380.487C173.313 375.765 178.912 374.07 181.56 375.169C183.669 376.046 183.769 377.367 181.91 379.81C179.987 382.328 177.474 384.064 173.12 385.87C166.125 388.839 158.854 392.983 152.507 395.846C149.65 397.132 147.271 396.922 143.887 401.667C143.215 402.614 141.281 408.166 140.632 411.322C140.281 413.029 140.287 414.963 140.655 417.558C140.947 419.627 141.415 425.693 141.695 431.041C141.976 436.388 142.414 441.777 142.671 443.01C142.923 444.243 143.268 446.826 143.431 448.743C143.916 454.4 144.168 456.656 144.448 457.849C144.664 458.778 144.501 458.971 143.484 458.971C142.397 458.971 142.227 458.708 141.97 456.598ZM125.857 424.846C125.337 424.18 124.198 423.034 123.327 422.303C122.462 421.573 119.943 418.733 117.74 415.992C107.81 403.648 106.559 402.333 102.439 399.937C101.457 399.365 103.03 403.292 104.83 405.904C106.881 408.885 115.092 417.412 117.751 419.323C118.897 420.147 121.305 421.994 123.099 423.437C126.746 426.354 127.254 426.617 125.857 424.846ZM158.656 390.446C165.19 387.027 169.059 385.87 172.869 383.591C189.964 373.392 172.063 378.945 165.388 382.282C159.287 385.414 151.058 391.925 149.118 394.064C148.563 394.677 151.496 394.134 158.656 390.446ZM129.119 369.792C129.119 369.237 120.112 359.6 115.431 354.995C107.647 347.344 101.802 341.973 101.802 342.47C101.802 342.716 102.293 344.288 102.889 345.959C104.134 349.46 106.676 353.224 108.663 354.515C110.113 355.456 113.017 357.8 116.442 360.78C117.582 361.774 119.411 363.071 120.504 363.668C121.603 364.264 123.397 365.403 124.496 366.21C126.623 367.77 129.119 370.161 129.119 369.792ZM170.549 360.459C171.466 359.921 173.208 358.735 174.418 357.829C175.633 356.923 178.661 354.831 181.15 353.183C185.703 350.167 192.126 344.2 191.162 343.879C190.326 343.598 187.573 345.199 184.09 347.981C182.308 349.407 179.45 351.634 177.737 352.932C174.611 355.298 167.451 361.949 168.381 361.622C168.655 361.523 169.631 361.003 170.549 360.459ZM181.6 305.721C184.675 304.207 184.698 303.208 181.758 298.562C179.257 294.605 177.27 292.706 175.061 292.151C174.348 291.975 172.676 290.929 171.355 289.836C167.673 286.797 167.603 286.78 164.582 288.305C163.109 289.047 161.812 289.708 161.701 289.766C161.595 289.83 161.771 290.199 162.092 290.584C162.414 290.97 162.998 292.718 163.39 294.459C165.044 301.519 164.179 300.812 168.912 303.676C174.546 307.1 177.737 307.615 181.6 305.721ZM159.684 301.992C160.707 301.081 161.251 300.111 161.291 299.123C161.438 295.476 161.081 293.442 160.012 291.847C158.977 290.31 158.591 290.129 155.833 289.86C153.811 289.667 151.491 288.942 148.872 287.691C144.273 285.488 143.349 284.758 142.432 282.56C141.637 280.649 141.544 280.632 138.101 281.894C136.652 282.42 133.151 283.466 130.322 284.214C122.292 286.341 121.223 287.773 124.782 291.636C126.915 293.951 128.353 294.611 132.473 295.184C133.847 295.371 136.196 296.066 137.692 296.727C139.194 297.387 141.21 298.036 142.181 298.17C145.366 298.609 146.342 298.93 148.621 300.286C151.415 301.952 154.98 303.278 156.78 303.331C157.604 303.354 158.749 302.828 159.684 301.992ZM214.919 301.42C218.355 300.753 221.067 299.842 223.849 298.427C226.046 297.305 228.016 296.388 228.226 296.388C228.437 296.388 230.547 294.956 232.908 293.203C235.269 291.455 238.366 289.439 239.786 288.726C241.207 288.013 242.522 287.183 242.709 286.885C242.89 286.587 242.884 285.295 242.691 284.01C242.416 282.169 241.914 281.269 240.318 279.755C237.869 276.932 236.677 277.92 233.013 278.124C230.108 278.282 226.046 278.627 223.989 278.89C217.736 279.691 212.85 280.415 212.038 280.661C208.017 281.882 178.906 283.378 176.493 282.49C175.873 282.256 174.465 281.941 173.372 281.783C171.501 281.508 171.303 281.602 170.227 283.279L169.076 285.067L171.472 287.23C172.787 288.416 174.429 289.538 175.113 289.725C176.943 290.222 179.561 291.969 182.325 294.547C184.341 296.423 185.388 296.972 188.298 297.674C190.233 298.141 192.944 299.094 194.318 299.789C199.689 302.507 206.509 303.05 214.919 301.42ZM161.8 287.189C164.412 286.26 167.247 284.214 168.223 282.56C169.421 280.52 169.842 276.844 169.117 274.647C168.778 273.624 167.79 272.07 166.92 271.205C165.248 269.527 160.286 266.716 158.106 266.202C156.791 265.892 151.228 266.705 149.743 267.423C144.822 269.814 143.811 270.609 142.876 272.806C141.97 274.951 142.029 277.353 143.016 279.182C143.466 280.006 144.156 281.304 144.553 282.063C145.325 283.536 149.924 286.225 153.419 287.247C156.113 288.036 159.497 288.013 161.8 287.189ZM131.287 281.643C135.267 280.649 140.205 278.902 140.205 278.487C136.441 274.103 130.673 272.42 126.489 268.639C125.939 268.125 123.695 266.26 121.503 264.501C119.306 262.736 116.471 260.428 115.197 259.358C111.475 256.243 107.758 255.507 103.672 257.079C101.744 257.827 101.942 259.002 104.526 262.169C106.98 265.185 110.452 271.736 111.03 274.442C111.65 277.37 112.696 278.872 114.905 280.006C119.569 282.397 125.781 283.016 131.287 281.643ZM186.72 280.158C190.256 279.983 192.64 279.27 195.563 277.511C196.731 276.803 201.068 275.535 203.54 275.185C205.667 274.875 212.347 272.946 214.989 271.877C216.053 271.444 219.863 269.054 226.689 264.519C231.593 261.269 234.608 256.6 236.169 249.85C237.227 245.273 237.156 242.55 235.894 239.149C234.445 235.239 234.252 233.503 234.959 230.563C235.479 228.401 235.45 227.875 234.754 226.817C234.082 225.788 233.574 225.596 231.587 225.631C229.126 225.672 226.812 225.011 226.251 224.105C225.602 223.053 219.314 223.503 215.708 224.859C210.623 226.776 209.653 227.472 209.273 229.494C209.092 230.458 208.438 232.276 207.812 233.521C205.311 239.85 200.53 245.209 195.592 249.756C189.648 255.127 183.547 260.79 180.852 263.455C179.128 265.15 176.37 267.172 174.365 268.207C172.448 269.2 170.701 270.182 170.49 270.392C170.28 270.603 170.42 271.655 170.794 272.736C171.174 273.811 171.636 275.74 171.829 277.02C172.057 280.123 172.589 279.416 175.511 279.895C180.782 280.748 181.302 280.801 182.097 280.567C182.506 280.445 184.587 280.263 186.72 280.158ZM140.205 273.77C140.421 272.163 143.174 268.399 145.377 267.213C146.371 266.675 147.189 265.875 147.189 265.43C147.189 264.285 146.295 261.661 144.892 258.686C144.232 257.289 143.694 255.881 143.694 255.559C143.694 254.151 139.375 246.875 135.962 242.527C132.689 238.36 126.243 227.139 126.243 225.607C126.243 225.303 125.811 224.111 125.291 222.948C124.765 221.785 123.73 219.26 122.988 217.343C120.972 212.119 116.466 206.935 113.421 206.333C112.538 206.157 110.715 206.304 109.359 206.648C107.138 207.215 106.559 207.169 103.368 206.146C97.793 204.352 97.1034 204.842 95.7767 211.569C95.1572 214.731 94.6722 215.479 92.124 217.244C87.5947 220.377 87.6999 228.202 92.3403 234.064C93.5793 235.449 94.041 237.384 94.9936 238.693C95.6365 239.569 97.0216 242.129 98.0619 244.385C99.558 248.499 101.872 249.078 104.403 251.556C106.168 253.309 107.261 253.999 108.26 253.999C111.574 253.999 115.116 256.08 121.93 262.041C127.131 266.588 129.715 268.563 132.724 270.281C134.507 271.298 136.704 272.765 137.604 273.537C139.597 275.249 140.001 275.29 140.205 273.77ZM173.424 266.143C175.785 264.992 177.802 263.572 178.9 262.292C179.853 261.176 181.694 259.387 182.986 258.324C186.638 255.32 193.494 248.996 195.761 246.553C202.95 238.798 203.826 237.647 205.416 233.766C208.73 225.707 209.191 218.203 206.9 209.752C205.825 205.801 205.621 205.474 201.255 200.775C197.117 196.327 196.398 195.772 193.026 194.451C190.992 193.662 188.731 193.025 188.006 193.049C184.429 193.148 179.543 197.391 174.669 204.626C172.91 207.233 170.403 210.827 169.094 212.615C167.785 214.404 165.78 217.77 164.646 220.096L162.583 224.322L162.665 234.549C162.712 240.171 162.525 249.259 162.25 254.747C161.975 260.229 161.858 264.893 161.981 265.103C162.11 265.314 163.138 265.956 164.272 266.529C165.4 267.108 166.633 267.891 167.013 268.271C169.281 269.551 171.396 267.137 173.424 266.143ZM155.652 264.028C159.661 263.642 159.275 264.776 159.737 261.024C159.918 259.545 160.216 252.024 160.409 244.321C160.742 230.733 160.713 230.055 159.433 221.96C158.708 217.367 157.773 212.65 157.358 211.487C156.943 210.319 156.371 208.15 156.096 206.672C155.541 203.744 153.571 199.32 151.648 196.701C150.351 194.942 146.418 192.657 144.676 192.657C144.098 192.657 142.648 192.084 141.456 191.383C139.516 189.846 138.627 190.302 136.395 190.951C134.174 191.599 132.841 192.423 130.632 194.533C127.885 197.157 127.669 197.262 125.875 196.894C122.842 196.281 121.27 196.438 120.463 197.449C118.201 200.266 117.576 204.848 119.136 207.157C119.616 207.864 120.831 209.436 121.837 210.652C122.842 211.867 123.999 213.755 124.402 214.854C129.329 228.191 132.327 234.105 138.078 241.837C142.157 247.319 145.693 253.198 145.693 254.502C145.693 254.806 146.459 256.892 147.4 259.136C148.34 261.386 149.235 263.63 149.392 264.133C149.603 264.811 149.954 264.951 150.783 264.688C151.397 264.49 153.583 264.197 155.652 264.028ZM225.485 458.597C225.485 458.392 225.152 456.651 224.743 454.728C223.475 448.784 222.031 436.891 221.698 429.691C221.348 422.099 221.207 421.777 218.04 421.316C209.94 420.135 201.167 416.909 199.168 414.373C197.357 412.07 195.966 407.646 195.931 404.11C195.89 399.423 196.498 395.174 197.532 392.889C198.029 391.79 199.052 388.915 199.8 386.495C202.4 378.085 205.749 373.579 206.988 376.806C207.222 377.425 207.649 378.518 207.935 379.243L208.455 380.558L210.986 378.121C213.919 375.292 215.346 375.017 216.14 377.133C216.585 378.302 216.988 378.576 218.256 378.576C219.542 378.576 219.922 378.308 220.389 377.057C220.95 375.572 221.014 375.549 223.557 375.847C225.368 376.063 226.549 376.537 227.467 377.419L228.787 378.682L229.892 377.18C230.745 376.034 231.394 375.683 232.686 375.683C234.071 375.683 234.76 376.116 236.549 378.109C238.407 380.178 238.945 380.499 240.213 380.312C242.557 379.973 245.198 382.609 246.706 386.805C247.378 388.669 247.928 390.99 247.928 391.96C247.928 392.936 248.348 394.327 248.857 395.057C250.33 397.15 249.465 402.667 246.823 408.061C242.305 417.283 235.584 422.52 228.226 422.561C223.604 422.59 223.621 422.572 223.791 427.213C224.036 433.84 225.947 450.841 226.742 453.483C226.865 453.892 227.163 455.295 227.408 456.598C227.835 458.883 227.806 458.971 226.666 458.971C226.017 458.971 225.485 458.801 225.485 458.597ZM234.573 418.733C236.882 417.698 238.203 416.629 240.377 414.045C242.995 410.936 245.818 406.045 246.683 403.111L247.051 401.866L245.701 403.111C244.959 403.8 243.211 405.893 241.82 407.769C238.863 411.76 231.832 418.025 229.886 418.417C229.138 418.563 228.121 419.142 227.63 419.703C226.736 420.714 226.748 420.714 229.161 420.392C230.494 420.217 232.931 419.469 234.573 418.733ZM224.509 417.535C227.034 412.584 228.121 403.865 227.052 397.126L226.695 394.882L225.526 398.377C224.889 400.294 224.165 402.082 223.925 402.339C223.685 402.602 223.475 404.735 223.452 407.079C223.428 409.423 223.259 413.192 223.066 415.454C222.879 417.722 222.896 419.568 223.101 419.568C223.305 419.568 223.937 418.657 224.509 417.535ZM216.754 416.22C215.988 415.179 214.644 413.549 213.773 412.59C211.225 409.779 208.49 405.641 206.445 401.492C205.393 399.365 204.393 397.629 204.224 397.629C204.048 397.629 204.025 399.961 204.16 402.807C204.493 409.814 204.779 410.159 215.76 417.178C216.859 417.879 217.841 418.376 217.946 418.277C218.057 418.183 217.52 417.254 216.754 416.22ZM208.73 415.138C203.318 411.31 200.326 406.366 199.215 399.423C198.759 396.583 198.134 398.377 198.093 402.655C198.058 405.869 199.478 411.527 200.694 412.999C201.839 414.396 208.812 417.476 210.974 417.54C211.915 417.57 211.424 417.044 208.73 415.138ZM220.658 415.454C220.518 414.291 220.185 412.549 219.91 411.591C219.162 408.984 215.591 399.727 214.241 396.881C213.113 394.508 213.049 394.461 212.973 395.881C212.786 399.499 213.171 403.567 214.031 406.91C214.755 409.75 215.486 411.176 217.473 413.648C218.864 415.366 219.998 416.956 219.998 417.178C219.998 417.394 220.202 417.575 220.448 417.575C220.699 417.575 220.792 416.623 220.658 415.454ZM229.699 412.713C231.523 409.943 233.463 402.123 233.439 397.629L233.422 393.888L232.37 396.881C231.791 398.523 230.973 400.399 230.558 401.036C230.102 401.737 229.746 403.637 229.67 405.776C229.594 407.739 229.202 410.527 228.799 411.965C228.396 413.403 228.156 414.583 228.267 414.583C228.372 414.583 229.015 413.742 229.699 412.713ZM234.638 409.972C236.14 407.558 237.238 404.969 237.945 402.182C239.237 397.074 239.079 395.548 237.56 398.465C236.958 399.616 236.245 400.691 235.964 400.867C235.69 401.036 235.45 401.784 235.438 402.52C235.427 403.257 234.684 406.05 233.79 408.721C232.896 411.398 232.212 413.584 232.276 413.584C232.341 413.584 233.404 411.959 234.638 409.972ZM240.885 405.501C243.667 401.936 244.438 400.072 244.438 396.922V394.958L242.679 397.413C241.709 398.768 240.581 401.106 240.166 402.614C239.751 404.122 238.951 406.366 238.39 407.599C237.232 410.153 237.308 410.083 240.885 405.501ZM221.207 403.239C220.863 398.476 220.103 394.824 220.033 397.594C220.015 398.26 219.74 399.522 219.419 400.405C218.928 401.772 219.01 402.462 219.98 405.057C220.605 406.728 221.219 408.102 221.336 408.102C221.459 408.102 221.4 405.91 221.207 403.239ZM210.98 403.485C210.39 400.452 210.436 396.098 211.085 393.041C211.704 390.142 212.271 389.482 213.563 390.171C214.264 390.546 214.463 390.323 214.744 388.833C215.123 386.799 214.562 378.179 214.048 378.179C213.376 378.179 210.606 381.469 209.647 383.415C209.104 384.514 208.502 387.091 208.309 389.149C208.11 391.288 207.567 393.561 207.047 394.455L206.135 396.016L207.982 399.692C211.406 406.5 211.611 406.758 210.98 403.485ZM202.26 395.531C202.687 392.34 203.283 391.469 204.58 392.164C205.363 392.585 205.568 392.445 205.866 391.282C206.427 389.108 206.339 381.019 205.749 380.026C205.282 379.231 205.095 379.377 204.124 381.271C201.857 385.712 200.67 390.738 200.933 394.818C201.208 399.107 201.746 399.394 202.26 395.531ZM218.198 394.508C218.344 392.796 218.577 388.927 218.718 385.905L218.975 380.423L217.987 381.598C217.233 382.51 217.005 383.532 216.999 386.086C216.999 387.91 216.69 390.534 216.322 391.925C215.743 394.093 215.755 394.718 216.38 396.285C216.783 397.296 217.292 398.009 217.52 397.868C217.742 397.728 218.046 396.214 218.198 394.508ZM224.504 393.298C224.983 390.768 225.281 390.148 226.029 390.148C227.262 390.148 228.501 392.123 228.84 394.631C229.202 397.342 229.804 397.565 230.494 395.25C230.973 393.661 230.891 392.515 230.009 388.459C228.437 381.2 226.759 378.419 223.744 378.091C222.294 377.934 222.236 378.009 221.611 380.92C220.816 384.66 221.126 391.498 222.253 395.075C223.247 398.202 223.639 397.892 224.504 393.298ZM237.782 392.796C239.453 389.271 237.753 381.984 234.556 378.985C231.762 376.367 229.804 378.915 231.166 383.404C231.581 384.783 232.066 386.945 232.241 388.214C232.475 389.891 232.773 390.505 233.352 390.458C234.322 390.382 235.31 392.217 235.748 394.882C236.046 396.735 236.105 396.793 236.525 395.688C236.771 395.034 237.338 393.731 237.782 392.796ZM245.005 392.305C246.104 392.591 246.104 392.585 245.257 389.4C244.357 386.016 243.235 383.971 241.744 382.995C240.02 381.867 239.804 382.515 240.418 386.94C240.71 389.014 240.944 391.872 240.944 393.286V395.858L242.51 393.959C243.591 392.649 244.363 392.135 245.005 392.305Z" fill="#5A4283"/>
</svg>
