<svg width="159" height="13" viewBox="0 0 159 13" fill="none" xmlns="http://www.w3.org/2000/svg">
<rect width="159" height="13" fill="#F5F5F5"/>
<g id="Memberships with partnerships (add later)" clip-path="url(#clip0_0_1)">
<rect width="1440" height="2096" transform="translate(-53 -1437)" fill="#F7F5EF"/>
<rect id="Rectangle 507" x="-53" y="-151" width="1440" height="568" fill="white"/>
<g id="activate_wordmark_supercyan 1" clip-path="url(#clip1_0_1)">
<g id="Artwork">
<g id="Group">
<g id="Group_2">
<path id="Vector" d="M72.0562 0.178711H68.178V12.8537H72.0562V0.178711Z" fill="#1ABEF5"/>
<path id="Vector_2" d="M45.6421 0.178711L43.5074 3.46121H54.0503V12.8537H57.9285V3.46121H65.0331V0.178711H45.6421Z" fill="#1ABEF5"/>
<path id="Vector_3" d="M8.4245 0.178711L0.162964 12.8537H4.79073L11.9605 1.81996L19.1466 12.8537H23.7743L15.5128 0.178711H8.4245Z" fill="#1ABEF5"/>
<path id="Vector_4" d="M29.4775 8.67746C28.8746 8.07621 28.5813 7.36121 28.5813 6.51621C28.5813 5.67121 28.8909 4.93996 29.4775 4.35496C30.0805 3.76996 30.7974 3.46121 31.6448 3.46121H39.1567L41.2914 0.178711H31.0093C29.2657 0.178711 27.7503 0.812461 26.5282 2.03121C25.2897 3.26621 24.6705 4.77746 24.6705 6.51621C24.6705 8.25496 25.2897 9.76621 26.5282 10.985C27.7666 12.22 29.282 12.8537 31.0256 12.8537H45.6747L47.8256 9.57121H31.6611C30.7974 9.57121 30.0642 9.27871 29.4775 8.67746Z" fill="#1ABEF5"/>
<path id="Vector_5" d="M102.984 0.178711L94.7225 12.8537H99.334L106.52 1.81996L113.706 12.8537H118.334L110.072 0.178711H102.984Z" fill="#1ABEF5"/>
<path id="Vector_6" d="M93.5492 0.178711L86.3631 11.2125L79.1771 0.178711H74.5493L82.8109 12.8537H89.9154L98.1607 0.178711H93.5492Z" fill="#1ABEF5"/>
<path id="Vector_7" d="M134.987 3.46121L137.122 0.178711H127.736H125.797H123.858H114.488L116.623 3.46121H123.858V12.8537H127.736V3.46121H134.987Z" fill="#1ABEF5"/>
<path id="Vector_8" d="M155.666 0.178711H144.064C142.32 0.178711 140.805 0.812461 139.582 2.03121C138.344 3.26621 137.725 4.77746 137.725 6.51621C137.725 8.25496 138.344 9.76621 139.582 10.985C140.821 12.22 142.336 12.8537 144.08 12.8537H156.22L158.371 9.57121H144.699C143.852 9.57121 143.135 9.26246 142.532 8.67746C141.929 8.07621 141.636 7.36121 141.636 6.51621C141.636 5.67121 141.945 4.93996 142.532 4.35496C143.135 3.76996 143.852 3.46121 144.699 3.46121H149.767L147.567 6.85746H151.315L155.666 0.178711Z" fill="#1ABEF5"/>
</g>
</g>
</g>
</g>
</g>
<defs>
<clipPath id="clip0_0_1">
<rect width="1440" height="2096" fill="white" transform="translate(-53 -1437)"/>
</clipPath>
<clipPath id="clip1_0_1">
<rect width="160" height="13" fill="white"/>
</clipPath>
</defs>
</svg>
