<svg width="50" height="45" viewBox="0 0 50 45" fill="none" xmlns="http://www.w3.org/2000/svg">
<g filter="url(#filter0_d_190_577)">
<path d="M34.7311 24.5833C34.3236 24.3791 31.675 23.1541 31.2675 22.9499C30.86 22.7458 30.4525 22.7458 30.045 23.1541C29.6376 23.5624 28.8226 24.7874 28.4151 25.1958C28.2114 25.6041 27.8039 25.6041 27.3964 25.3999C25.9702 24.7874 24.544 23.9708 23.3216 22.9499C22.3029 21.9291 21.2842 20.7041 20.4692 19.4791C20.2655 19.0708 20.4692 18.6624 20.6729 18.4583C20.8767 18.2541 21.0804 17.8458 21.4879 17.6416C21.6917 17.4374 21.8954 17.0291 21.8954 16.8249C22.0991 16.6208 22.0991 16.2124 21.8954 16.0083C21.6917 15.8041 20.6729 13.3541 20.2655 12.3333C20.0617 10.9041 19.6542 10.9041 19.2468 10.9041C19.043 10.9041 18.6355 10.9041 18.228 10.9041C17.8206 10.9041 17.2093 11.3124 17.0056 11.5166C15.7832 12.7416 15.1719 14.1708 15.1719 15.8041C15.3757 17.6416 15.9869 19.4791 17.2093 21.1124C19.4505 24.3791 22.3029 27.0333 25.7665 28.6666C26.7852 29.0749 27.6001 29.4833 28.6189 29.6874C29.6376 30.0958 30.6563 30.0958 31.8787 29.8916C33.3049 29.6874 34.5274 28.6666 35.3423 27.4416C35.7498 26.6249 35.7498 25.8083 35.5461 24.9916C35.5461 24.9916 35.1386 24.7874 34.7311 24.5833ZM39.8246 6.0041C31.8787 -1.9584 19.043 -1.9584 11.0971 6.0041C4.57738 12.5374 3.35493 22.5416 7.83724 30.5041L4.98486 40.9166L15.7832 38.0583C18.8393 39.6916 22.0991 40.5083 25.359 40.5083C36.5648 40.5083 45.5294 31.5249 45.5294 20.2958C45.7331 14.9874 43.492 9.88327 39.8246 6.0041ZM34.3236 34.5874C31.675 36.2208 28.6189 37.2416 25.359 37.2416C22.3029 37.2416 19.4505 36.4249 16.8019 34.9958L16.1906 34.5874L9.87465 36.2208L11.5046 30.0958L11.0971 29.4833C6.20731 21.3166 8.65221 11.1083 16.5981 6.0041C24.544 0.899935 34.7311 3.5541 39.6209 11.3124C44.5107 19.2749 42.2695 29.6874 34.3236 34.5874Z" fill="white"/>
</g>
<defs>
<filter id="filter0_d_190_577" x="0.984863" y="0.0322266" width="48.5571" height="48.8843" filterUnits="userSpaceOnUse" color-interpolation-filters="sRGB">
<feFlood flood-opacity="0" result="BackgroundImageFix"/>
<feColorMatrix in="SourceAlpha" type="matrix" values="0 0 0 0 0 0 0 0 0 0 0 0 0 0 0 0 0 0 127 0" result="hardAlpha"/>
<feOffset dy="4"/>
<feGaussianBlur stdDeviation="2"/>
<feComposite in2="hardAlpha" operator="out"/>
<feColorMatrix type="matrix" values="0 0 0 0 0 0 0 0 0 0 0 0 0 0 0 0 0 0 0.25 0"/>
<feBlend mode="normal" in2="BackgroundImageFix" result="effect1_dropShadow_190_577"/>
<feBlend mode="normal" in="SourceGraphic" in2="effect1_dropShadow_190_577" result="shape"/>
</filter>
</defs>
</svg>
