<svg width="46" height="45" viewBox="0 0 46 45" fill="none" xmlns="http://www.w3.org/2000/svg">
<path d="M33.1587 12.1875H33.1774M13.5122 3.75H32.2232C37.3901 3.75 41.5786 7.94733 41.5786 13.125V31.875C41.5786 37.0527 37.3901 41.25 32.2232 41.25H13.5122C8.34535 41.25 4.15677 37.0527 4.15677 31.875V13.125C4.15677 7.94733 8.34535 3.75 13.5122 3.75ZM30.3521 21.3187C30.583 22.8792 30.317 24.4729 29.592 25.8732C28.8669 27.2734 27.7197 28.4089 26.3136 29.1181C24.9074 29.8274 23.3139 30.0742 21.7596 29.8236C20.2054 29.573 18.7696 28.8377 17.6564 27.7222C16.5433 26.6067 15.8094 25.1679 15.5593 23.6104C15.3092 22.0529 15.5556 20.4561 16.2634 19.047C16.9711 17.6379 18.1043 16.4883 19.5016 15.7617C20.8989 15.0351 22.4893 14.7686 24.0465 15C25.6349 15.236 27.1055 15.9777 28.2409 17.1156C29.3764 18.2534 30.1165 19.727 30.3521 21.3187Z" stroke="white" stroke-width="4" stroke-linecap="round" stroke-linejoin="round"/>
</svg>
